<svg xmlns="http://www.w3.org/2000/svg" xmlns:xlink="http://www.w3.org/1999/xlink" viewBox="0 0 60 75" version="1.1" x="0px" y="0px"><title>Group 110</title><desc>Created with Sketch.</desc><g stroke="none" stroke-width="1" fill="none" fill-rule="evenodd"><g transform="translate(-1080.000000, -1607.000000)" fill="#000000"><g transform="translate(1080.000000, 1606.000000)"><path d="M3.718,15.6031 C3.462,15.6031 3.206,15.5051 3.011,15.3101 C2.62,14.9191 2.62,14.2871 3.011,13.8961 L7.253,9.6531 C7.644,9.2621 8.277,9.2621 8.667,9.6531 C9.058,10.0431 9.058,10.6761 8.667,11.0671 L4.425,15.3101 C4.23,15.5051 3.974,15.6031 3.718,15.6031"/><path d="M6.5461,18.4312 C6.2901,18.4312 6.0341,18.3332 5.8391,18.1382 C5.4481,17.7472 5.4481,17.1152 5.8391,16.7242 L8.6671,13.8962 C9.0581,13.5052 9.6911,13.5052 10.0811,13.8962 C10.4721,14.2862 10.4721,14.9192 10.0811,15.3102 L7.2531,18.1382 C7.0581,18.3332 6.8021,18.4312 6.5461,18.4312"/><path d="M9.3743,21.2593 C9.1183,21.2593 8.8623,21.1613 8.6673,20.9663 C8.2763,20.5753 8.2763,19.9433 8.6673,19.5523 L12.9103,15.3103 C13.3013,14.9193 13.9343,14.9193 14.3243,15.3103 C14.7153,15.7003 14.7153,16.3333 14.3243,16.7243 L10.0813,20.9663 C9.8863,21.1613 9.6303,21.2593 9.3743,21.2593"/><path d="M12.2034,24.0884 C11.9474,24.0884 11.6914,23.9904 11.4964,23.7954 C11.1054,23.4044 11.1054,22.7724 11.4964,22.3814 L14.3244,19.5524 C14.7154,19.1614 15.3484,19.1614 15.7384,19.5524 C16.1294,19.9424 16.1294,20.5754 15.7384,20.9664 L12.9104,23.7954 C12.7154,23.9904 12.4594,24.0884 12.2034,24.0884"/><path d="M15.0315,26.9166 C14.7755,26.9166 14.5195,26.8186 14.3245,26.6236 C13.9335,26.2326 13.9335,25.6006 14.3245,25.2096 L18.5665,20.9666 C18.9575,20.5756 19.5905,20.5756 19.9805,20.9666 C20.3715,21.3566 20.3715,21.9896 19.9805,22.3806 L15.7385,26.6236 C15.5435,26.8186 15.2875,26.9166 15.0315,26.9166"/><path d="M17.8596,29.7447 C17.6036,29.7447 17.3476,29.6467 17.1526,29.4517 C16.7616,29.0607 16.7616,28.4287 17.1526,28.0377 L19.9806,25.2097 C20.3716,24.8187 21.0046,24.8187 21.3946,25.2097 C21.7856,25.5997 21.7856,26.2327 21.3946,26.6237 L18.5666,29.4517 C18.3716,29.6467 18.1156,29.7447 17.8596,29.7447"/><path d="M32.0022,43.8873 C31.7462,43.8873 31.4902,43.7893 31.2952,43.5943 C30.9042,43.2033 30.9042,42.5713 31.2952,42.1803 L35.5372,37.9373 C35.9282,37.5463 36.5612,37.5463 36.9512,37.9373 C37.3422,38.3273 37.3422,38.9603 36.9512,39.3513 L32.7092,43.5943 C32.5142,43.7893 32.2582,43.8873 32.0022,43.8873"/><path d="M34.8303,46.7154 C34.5743,46.7154 34.3183,46.6174 34.1233,46.4224 C33.7323,46.0314 33.7323,45.3994 34.1233,45.0084 L36.9513,42.1804 C37.3423,41.7894 37.9753,41.7894 38.3653,42.1804 C38.7563,42.5704 38.7563,43.2034 38.3653,43.5944 L35.5373,46.4224 C35.3423,46.6174 35.0863,46.7154 34.8303,46.7154"/><path d="M37.6584,49.5435 C37.4024,49.5435 37.1464,49.4455 36.9514,49.2505 C36.5604,48.8595 36.5604,48.2275 36.9514,47.8365 L41.1944,43.5945 C41.5854,43.2035 42.2184,43.2035 42.6084,43.5945 C42.9994,43.9845 42.9994,44.6175 42.6084,45.0085 L38.3654,49.2505 C38.1704,49.4455 37.9144,49.5435 37.6584,49.5435"/><path d="M49.6702,48.6705 C49.1612,48.6705 48.6522,48.8635 48.2652,49.2505 C47.4902,50.0245 47.4902,51.2855 48.2652,52.0605 C49.0402,52.8335 50.3012,52.8335 51.0742,52.0605 C51.8492,51.2855 51.8492,50.0255 51.0742,49.2505 C50.6872,48.8635 50.1792,48.6705 49.6702,48.6705 M49.6702,54.6395 C48.6492,54.6395 47.6282,54.2515 46.8512,53.4745 C45.2972,51.9205 45.2972,49.3915 46.8512,47.8365 C48.4052,46.2835 50.9362,46.2815 52.4882,47.8365 C54.0422,49.3915 54.0422,51.9205 52.4882,53.4745 C51.7122,54.2515 50.6912,54.6395 49.6702,54.6395"/><path d="M9.5032,52.9322 L13.0382,56.4682 L46.2732,23.2342 L42.7372,19.6982 L9.5032,52.9322 Z M13.0382,58.8822 L13.0382,58.8822 C12.7732,58.8822 12.5192,58.7772 12.3312,58.5892 L7.3822,53.6392 C6.9912,53.2482 6.9912,52.6162 7.3822,52.2252 L42.0302,17.5772 C42.2182,17.3892 42.4722,17.2842 42.7372,17.2842 C43.0032,17.2842 43.2572,17.3892 43.4442,17.5772 L48.3942,22.5272 C48.7842,22.9172 48.7842,23.5502 48.3942,23.9412 L13.7452,58.5892 C13.5582,58.7772 13.3042,58.8822 13.0382,58.8822 L13.0382,58.8822 Z"/><path d="M4.553,47.983 L8.089,51.518 L41.324,18.284 L37.787,14.749 L4.553,47.983 Z M8.089,53.932 C7.833,53.932 7.577,53.835 7.382,53.639 L2.432,48.69 C2.244,48.503 2.139,48.249 2.139,47.983 C2.139,47.717 2.244,47.463 2.432,47.276 L37.08,12.628 C37.471,12.237 38.104,12.237 38.494,12.628 L43.445,17.577 C43.632,17.764 43.738,18.018 43.738,18.284 C43.738,18.549 43.632,18.803 43.445,18.991 L8.796,53.639 C8.601,53.835 8.345,53.932 8.089,53.932 L8.089,53.932 Z"/><path d="M43.4436,9.0914 L51.9296,17.5774 L57.2906,12.2174 C58.2326,11.2744 58.2336,9.7384 57.2906,8.7954 L52.2256,3.7314 C51.2836,2.7884 49.7486,2.7874 48.8036,3.7314 L43.4436,9.0914 Z M51.9296,19.9914 C51.6736,19.9914 51.4186,19.8944 51.2226,19.6984 L41.3226,9.7984 C40.9316,9.4074 40.9316,8.7754 41.3226,8.3844 L47.3896,2.3174 C49.1146,0.5934 51.9196,0.5954 53.6396,2.3174 L58.7046,7.3814 C60.4266,9.1044 60.4266,11.9074 58.7046,13.6314 L52.6366,19.6984 C52.4416,19.8944 52.1856,19.9914 51.9296,19.9914 L51.9296,19.9914 Z"/><path d="M3.7903,50.0484 L2.2513,58.7704 L10.9733,57.2314 L3.7903,50.0484 Z M1.0183,61.0034 C0.7553,61.0034 0.5003,60.9004 0.3113,60.7104 C0.0803,60.4804 -0.0227,60.1514 0.0333,59.8294 L2.1543,47.8094 C2.2193,47.4424 2.4823,47.1414 2.8383,47.0284 C3.1903,46.9154 3.5823,47.0124 3.8463,47.2764 L13.7453,57.1754 C14.0093,57.4394 14.1033,57.8274 13.9923,58.1834 C13.8803,58.5384 13.5793,58.8024 13.2123,58.8664 L1.1913,60.9874 C1.1343,60.9984 1.0753,61.0034 1.0183,61.0034 L1.0183,61.0034 Z"/><path d="M39.2014,13.3345 L47.6864,21.8195 L50.5154,18.9915 L42.0294,10.5055 L39.2014,13.3345 Z M47.6864,24.2335 C47.4304,24.2335 47.1754,24.1365 46.9794,23.9405 L37.0804,14.0415 C36.6894,13.6505 36.6894,13.0185 37.0804,12.6275 L41.3224,8.3845 C41.6974,8.0095 42.3614,8.0095 42.7364,8.3845 L52.6374,18.2845 C52.8244,18.4725 52.9304,18.7265 52.9304,18.9915 C52.9304,19.2575 52.8244,19.5115 52.6374,19.6985 L48.3934,23.9405 C48.1984,24.1365 47.9424,24.2335 47.6864,24.2335 L47.6864,24.2335 Z"/><path d="M10.0823,2.9957 C9.8253,2.9957 9.5693,3.0937 9.3743,3.2887 L2.3033,10.3597 C1.9133,10.7507 1.9133,11.3847 2.3033,11.7747 L20.1183,29.5897 L28.6033,21.1037 L10.7893,3.2887 C10.5943,3.0937 10.3383,2.9957 10.0823,2.9957 M20.1183,32.0037 C19.8623,32.0037 19.6063,31.9057 19.4113,31.7107 L0.8893,13.1887 C-0.2807,12.0187 -0.2807,10.1157 0.8893,8.9457 L7.9603,1.8747 C9.1293,0.7047 11.0323,0.7047 12.2033,1.8747 L30.7253,20.3967 C31.1153,20.7877 31.1153,21.4207 30.7253,21.8107 L20.8253,31.7107 C20.6303,31.9057 20.3743,32.0037 20.1183,32.0037"/><path d="M31.4319,40.9029 L49.4279,58.8999 C49.5669,59.0399 49.7919,59.0379 49.9309,58.8999 L57.9139,50.9169 C58.0529,50.7779 58.0529,50.5519 57.9139,50.4139 L39.9169,32.4179 L31.4319,40.9029 Z M49.6799,61.0029 C49.0769,61.0029 48.4729,60.7729 48.0139,60.3139 L29.3109,41.6099 C28.9199,41.2189 28.9199,40.5869 29.3109,40.1959 L39.2099,30.2969 C39.6009,29.9059 40.2339,29.9059 40.6239,30.2969 L59.3279,48.9999 C60.2469,49.9179 60.2469,51.4129 59.3279,52.3309 L51.3449,60.3139 C50.8859,60.7729 50.2829,61.0029 49.6799,61.0029 L49.6799,61.0029 Z"/></g></g></g><text x="0" y="75" fill="#000000" font-size="5px" font-weight="bold" font-family="'Helvetica Neue', Helvetica, Arial-Unicode, Arial, Sans-serif">Created by Oliviu Stoian</text><text x="0" y="80" fill="#000000" font-size="5px" font-weight="bold" font-family="'Helvetica Neue', Helvetica, Arial-Unicode, Arial, Sans-serif">from the Noun Project</text></svg>