<svg xmlns:dc="http://purl.org/dc/elements/1.1/" xmlns:cc="http://creativecommons.org/ns#" xmlns:rdf="http://www.w3.org/1999/02/22-rdf-syntax-ns#" xmlns:svg="http://www.w3.org/2000/svg" xmlns="http://www.w3.org/2000/svg" xmlns:sodipodi="http://sodipodi.sourceforge.net/DTD/sodipodi-0.dtd" xmlns:inkscape="http://www.inkscape.org/namespaces/inkscape" version="1.1" x="0px" y="0px" viewBox="0 0 100 125"><g transform="translate(0,-952.36218)"><path style="color:#000000;enable-background:accumulate;" d="m 88.5,960.36215 -23,3.6874 0,36.31255 23,0 z m -53,0.3124 -24,3.7188 0,35.96875 24,0 z m 4,0 0,39.68755 22,0 0,-36.31255 z m -11.875,8.0313 6.71875,15.9063 c 0.39679,2.0621 -0.99914,2.7835 -2.625,2.625 l -15.90625,-6.7188 c -1.88489,-1.3289 -1.1999,-2.9119 0.3125,-3.8125 l 6.21875,-1.4687 1.5,-6.2188 c 0.97786,-2.0618 2.64724,-1.592 3.78125,-0.3125 z m -1.3125,7.1563 -0.34375,1.5 c -0.17758,0.715 -0.78146,1.3062 -1.5,1.4687 l -1.5,0.375 5.78125,2.4375 z M 11.5,1004.3621 l 0,36.0313 24,3.6562 0,-39.6875 z m 28,0 0,39.6875 22,-3.375 0,-36.3125 z m 26,0 0,36.3125 23,3.6876 0,-40.0001 z m 6.625,10.3125 3.875,3.875 3.875,-3.875 2.84375,2.8126 -3.875,3.9062 3.875,3.875 -2.84375,2.8438 -3.875,-3.875 -3.875,3.875 -2.84375,-2.8438 3.875,-3.875 -3.875,-3.9062 z" fill="#000000" stroke="none" marker="none" visibility="visible" display="inline" overflow="visible"/></g><text x="0" y="115" fill="#000000" font-size="5px" font-weight="bold" font-family="'Helvetica Neue', Helvetica, Arial-Unicode, Arial, Sans-serif">Created by AFY Studio</text><text x="0" y="120" fill="#000000" font-size="5px" font-weight="bold" font-family="'Helvetica Neue', Helvetica, Arial-Unicode, Arial, Sans-serif">from the Noun Project</text></svg>