<svg xmlns="http://www.w3.org/2000/svg" xmlns:xlink="http://www.w3.org/1999/xlink" xmlns:a="http://ns.adobe.com/AdobeSVGViewerExtensions/3.0/" version="1.1" x="0px" y="0px" viewBox="-17.247 -2.274 100 100" enable-background="new -17.247 -2.274 100 100" xml:space="preserve"><path display="none" fill-rule="evenodd" clip-rule="evenodd" d="M30.075,0.794c1.569,0,3.139,0,4.709,0  c0.95,0.31,1.805,1.013,2.995,1.284c0.571,0.713,1.142,1.426,1.713,2.14c0.144,0,0.284,0,0.429,0c0,0.286,0,0.571,0,0.856  c0.143,0,0.284,0,0.428,0c0.415,0.758,1.711,4.604,1.283,5.992c-0.143,0-0.285,0-0.428,0c0,0.57,0,1.142,0,1.712  c-0.144,0-0.286,0-0.428,0c-1.104,5.546-9.13,7.693-14.125,4.28c0-0.142,0-0.285,0-0.428c-0.428-0.285-0.856-0.571-1.284-0.856  c0-0.286,0-0.57,0-0.856c-0.285-0.143-0.571-0.285-0.856-0.428c-0.501-0.778-0.011-0.955-0.856-1.712  c-0.143-1.284-0.285-2.568-0.427-3.852c0.236-0.919,0.728-2.15,0.855-3.424c1.048-0.666,0.263-0.49,0.856-1.285  c0.713-0.57,1.426-1.141,2.14-1.711c0-0.144,0-0.286,0-0.428c0.285,0,0.571,0,0.856,0c0-0.142,0-0.285,0-0.428  c0.713-0.143,1.427-0.285,2.14-0.428C30.075,1.08,30.075,0.937,30.075,0.794z"></path><path display="none" fill-rule="evenodd" clip-rule="evenodd" d="M24.939,73.132c11.115-0.232,23.325-0.141,31.248,2.997  c0.426,0,0.854,0,1.282,0c1.979,0.794,5.87,2.595,6.422,4.707c0.143,0,0.284,0,0.428,0c0.596,1.179-1.308,3.563-1.713,3.854  c-0.285,0-0.57,0-0.855,0c-0.144,0.285-0.285,0.571-0.428,0.855c-0.285,0-0.572,0-0.857,0c0,0.144,0,0.285,0,0.429  c-0.569,0.142-1.141,0.285-1.711,0.428c0,0.144,0,0.285,0,0.428c-0.57,0-1.142,0-1.713,0c0,0.143,0,0.285,0,0.429  c-0.285,0-0.57,0-0.854,0c0,0.142,0,0.285,0,0.428c-1.143,0.143-2.284,0.285-3.426,0.428c-10.779,3.405-32.09,3.066-42.375-0.428  c-3.582-1.216-8.881-1.464-9.845-5.137c-0.143,0-0.285,0-0.428,0c-0.587-1.188,1.299-3.556,1.712-3.853c0.286,0,0.571,0,0.856,0  c0.142-0.285,0.285-0.57,0.428-0.854c0.713-0.145,1.427-0.287,2.141-0.429c0.142-0.286,0.285-0.571,0.427-0.855  c0.571,0,1.142,0,1.713,0c0-0.145,0-0.287,0-0.429c0.428,0,0.855,0,1.284,0c0-0.143,0-0.285,0-0.429  c0.999-0.143,1.997-0.285,2.996-0.427c0-0.145,0-0.287,0-0.429c0.856,0,1.712,0,2.568,0c0-0.144,0-0.284,0-0.429  c0.571,0,1.141,0,1.712,0c0-0.143,0-0.284,0-0.427c1.284,0,2.568,0,3.852,0c0-0.145,0-0.286,0-0.429  C21.503,73.084,23.826,74.091,24.939,73.132z"></path><path display="none" fill-rule="evenodd" clip-rule="evenodd" d="M24.939,73.132c11.115-0.232,23.325-0.141,31.248,2.997  c0.426,0,0.854,0,1.282,0c1.979,0.794,5.87,2.595,6.422,4.707c0.143,0,0.284,0,0.428,0c0.596,1.179-1.308,3.563-1.713,3.854  c-0.285,0-0.57,0-0.855,0c-0.144,0.285-0.285,0.571-0.428,0.855c-0.285,0-0.572,0-0.857,0c0,0.144,0,0.285,0,0.429  c-0.569,0.142-1.141,0.285-1.711,0.428c0,0.144,0,0.285,0,0.428c-0.57,0-1.142,0-1.713,0c0,0.143,0,0.285,0,0.429  c-0.285,0-0.57,0-0.854,0c0,0.142,0,0.285,0,0.428c-1.143,0.143-2.284,0.285-3.426,0.428c-10.779,3.405-32.09,3.066-42.375-0.428  c-3.582-1.216-8.881-1.464-9.845-5.137c-0.143,0-0.285,0-0.428,0c-0.587-1.188,1.299-3.556,1.712-3.853c0.286,0,0.571,0,0.856,0  c0.142-0.285,0.285-0.57,0.428-0.854c0.713-0.145,1.427-0.287,2.141-0.429c0.142-0.286,0.285-0.571,0.427-0.855  c0.571,0,1.142,0,1.713,0c0-0.145,0-0.287,0-0.429c0.428,0,0.855,0,1.284,0c0-0.143,0-0.285,0-0.429  c0.999-0.143,1.997-0.285,2.996-0.427c0-0.145,0-0.287,0-0.429c0.856,0,1.712,0,2.568,0c0-0.144,0-0.284,0-0.429  c0.571,0,1.141,0,1.712,0c0-0.143,0-0.284,0-0.427c1.284,0,2.568,0,3.852,0c0-0.145,0-0.286,0-0.429  C21.503,73.084,23.826,74.091,24.939,73.132z"></path><path display="none" fill-rule="evenodd" clip-rule="evenodd" d="M40.776,82.978c-0.428,0.143-0.855,0.284-1.284,0.428  c0,0.143,0,0.285,0,0.428c-0.284,0-0.571,0-0.856,0c0,0.144,0,0.284,0,0.428c-4.138,0-8.275,0-12.413,0c0-0.144,0-0.284,0-0.428  c-0.286,0-0.571,0-0.856,0c0-0.143,0-0.285,0-0.428c-0.428-0.144-0.856-0.285-1.284-0.428c0-0.285,0-0.57,0-0.856  c-0.285-0.143-0.571-0.285-0.855-0.428c0-5.136,0-10.273,0-15.409c0-9.417,0-18.834,0-28.251c-0.603-0.315-1.294-0.769-1.712-1.284  c-0.86,0.245-0.371-0.051-0.856,0.428c-2.367,0.633-1.71,2.365-1.713,5.136c0,4.137,0,8.276,0,12.414  c-1.042,0.392-2.65,0.443-4.28,0.429c-0.719-1.962-0.428-5.489-0.428-8.134c0-5.422,0-10.844,0-16.265c0.143,0,0.286,0,0.428,0  c0-0.571,0-1.142,0-1.713c0.143,0,0.286,0,0.428,0c0-0.284,0-0.57,0-0.855c0.143,0,0.285,0,0.429,0c0-0.286,0-0.571,0-0.857  c0.285-0.142,0.57-0.285,0.855-0.427c0.571-0.713,1.142-1.428,1.712-2.141c0.855-0.285,1.712-0.571,2.568-0.856  c0-0.142,0-0.286,0-0.428c2.71,0,5.422,0,8.133,0c7.898,0,18.914-1.542,20.544,4.709c1.509,1.515,1.285,5.069,1.285,8.132  c0,6.134,0,12.271,0,18.406c-1.044,0.392-2.651,0.443-4.28,0.429c-1.209-3.284-0.448-12.718-0.429-17.123  c-0.603-0.315-1.293-0.769-1.713-1.284c-0.858,0.245-0.369-0.051-0.854,0.428c-1.044,0.292-0.742,0.163-1.284,0.856  c-0.144,0-0.286,0-0.429,0c0,3.281,0,6.563,0,9.845c0,11.271,0,22.544,0,33.815C40.897,82.175,41.052,81.964,40.776,82.978z"></path><ellipse display="none" fill-rule="evenodd" clip-rule="evenodd" cx="32.216" cy="81.773" rx="32.216" ry="8.722"></ellipse><path fill="none" d="M42.255,74.99v3.476c0,2.762-2.238,5-5,5h-8.491c-2.761,0-5-2.238-5-5v-3.494  c-11.69,0.813-20.136,3.143-20.136,5.892c0,3.424,13.097,6.2,29.253,6.2c16.157,0,29.252-2.776,29.252-6.2  C62.134,78.135,53.812,75.818,42.255,74.99z"></path><circle cx="33.009" cy="9.245" r="9.245"></circle><path d="M42.255,72.644V62.578h-0.02V38.018h0.02c0-1.186,0.969-2.146,2.164-2.146s2.166,0.961,2.166,2.146  c0,0.063-0.014,0.121-0.02,0.183v15.732h4.836V31.341l0,0c0-4.873-4.096-8.824-9.146-8.824H23.764v0.005  c-5.005,0.052-9.047,3.979-9.047,8.819v22.592h4.754V39.08v-1.063c0-1.186,0.961-2.146,2.146-2.146s2.146,0.961,2.146,2.146v2.142  v14.543v3.108v2.62v12.174c-13.416,1.054-23.227,4.402-23.227,8.374c0,4.308,11.538,7.883,26.702,8.592  c1.838,1.96,3.676,3.919,5.514,5.881c2.114-1.973,4.228-3.947,6.343-5.921c14.756-0.798,25.875-4.323,25.875-8.552  C64.97,77.058,55.409,73.741,42.255,72.644z M32.881,87.063c-16.156,0-29.253-2.776-29.253-6.2c0-2.749,8.446-5.079,20.136-5.892  v3.494c0,2.762,2.239,5,5,5h8.491c2.762,0,5-2.238,5-5V74.99c11.557,0.828,19.879,3.145,19.879,5.873  C62.134,84.287,49.038,87.063,32.881,87.063z"></path></svg>