<svg xmlns="http://www.w3.org/2000/svg" xmlns:xlink="http://www.w3.org/1999/xlink" version="1.1" x="0px" y="0px" viewBox="0 0 100 125" style="enable-background:new 0 0 100 100;" xml:space="preserve"><g><g><circle cx="42.8" cy="37.1" r="11.7"/><path d="M72.4,54.2c0.6,0,1.1,0,1.6,0.1c2.3-5.8,3.9-11.6,3.9-17.1C77.9,17.7,62.2,2,42.8,2S7.7,17.7,7.7,37.1    c0,22.6,25.3,50.7,29.3,55c1.6,1.8,3,3.5,5.9,3.5c2.8,0,4.2-1.7,5.9-3.5c0.5-0.5,1.3-1.4,2.3-2.5c-1.7-3.3-2.7-7.1-2.7-11.2    C48.2,65,59,54.2,72.4,54.2z M42.8,60.5c-12.9,0-23.4-10.5-23.4-23.4s10.5-23.4,23.4-23.4s23.4,10.5,23.4,23.4    S55.8,60.5,42.8,60.5z"/></g><path d="M72.9,59.3c-10.7,0-19.4,8.7-19.4,19.4S62.2,98,72.9,98s19.4-8.7,19.4-19.4S83.6,59.3,72.9,59.3z M80.1,82h-7.5   c-1.1,0-2-0.9-2-2V67.5c0-1.1,0.9-2,2-2s2,0.9,2,2V78h5.5c1.1,0,2,0.9,2,2S81.2,82,80.1,82z"/></g><text x="0" y="115" fill="#000000" font-size="5px" font-weight="bold" font-family="'Helvetica Neue', Helvetica, Arial-Unicode, Arial, Sans-serif">Created by Harsha Rai</text><text x="0" y="120" fill="#000000" font-size="5px" font-weight="bold" font-family="'Helvetica Neue', Helvetica, Arial-Unicode, Arial, Sans-serif">from the Noun Project</text></svg>