<svg xmlns="http://www.w3.org/2000/svg" xmlns:xlink="http://www.w3.org/1999/xlink" version="1.1" x="0px" y="0px" viewBox="0 0 100 125"><path d="M1500,951 c0,193,-155,349,-349,349 c-194,0,-351,-156,-351,-349 c0,-183,157,-356,351,-600 c194,244,349,417,349,600 Z M725,951 c0,93,30,179,81,249 l-231,0 l16,-250 l-182,0 l16,250 l-325,0 l-300,-1200 l550,0 l22,350 l256,0 l22,-350 l550,0 l-61,245 c-210,271,-414,477,-414,706 Z M1024,951 c0,69,57,126,126,126 c69,0,127,-57,127,-126 c0,-70,-58,-127,-127,-127 c-69,0,-126,57,-126,127 Z M381,500 l19,300 l200,0 l19,-300 Z M381,500 " fill="#000000" stroke="none" stroke-dasharray="none" stroke-linecap="inherit" stroke-linejoin="inherit" stroke-width="1" transform="matrix(0.05,0.0,0.0,-0.05,20.0,80.0)"/><text x="0" y="115" fill="#000000" font-size="5px" font-weight="bold" font-family="'Helvetica Neue', Helvetica, Arial-Unicode, Arial, Sans-serif">Created by Thomas Helbig</text><text x="0" y="120" fill="#000000" font-size="5px" font-weight="bold" font-family="'Helvetica Neue', Helvetica, Arial-Unicode, Arial, Sans-serif">from the Noun Project</text></svg>